<svg width="20" height="18" viewBox="0 0 20 18" fill="none" xmlns="http://www.w3.org/2000/svg">
<path d="M9.52381 8.52632L1.90476 3.78947V13.2632H10.4762V15.1579H1.90476C1.38095 15.1579 0.93254 14.9724 0.559524 14.6013C0.186508 14.2303 0 13.7842 0 13.2632V1.89474C0 1.37368 0.186508 0.927632 0.559524 0.556579C0.93254 0.185526 1.38095 0 1.90476 0H17.1429C17.6667 0 18.1151 0.185526 18.4881 0.556579C18.8611 0.927632 19.0476 1.37368 19.0476 1.89474V8.52632H17.1429V3.78947L9.52381 8.52632ZM9.52381 6.63158L17.1429 1.89474H1.90476L9.52381 6.63158ZM16.1905 18L14.8571 16.6737L16.3571 15.1579H12.381V13.2632H16.3571L14.8333 11.7474L16.1905 10.4211L20 14.2105L16.1905 18ZM1.90476 3.78947V14.2105V8.52632V8.59737V1.89474V3.78947Z" fill="black"/>
</svg>
